<?xml version="1.0" encoding="utf-8"?>
<!-- Generator: Adobe Illustrator 25.2.1, SVG Export Plug-In . SVG Version: 6.00 Build 0)  -->
<svg version="1.1" id="Layer_1" xmlns="http://www.w3.org/2000/svg" xmlns:xlink="http://www.w3.org/1999/xlink" x="0px" y="0px"
	 viewBox="0 0 92.5 112.4" style="enable-background:new 0 0 92.5 112.4;" xml:space="preserve">
<style type="text/css">
	.st0{fill:#D4AF37;}
</style>
<path class="st0" d="M73.8,71.2V0L32.1,22.4c-4.7,2.5-7.7,7.5-7.7,12.9v9.5L10,40.3v67.4h3.7V45.3l10.6,3.3v58.9h3.7V49.8l14.7,4.6
	c4.6,1.4,7.7,5.6,7.6,10.4v12.7c-4.9,2.3-8,7.2-8.2,12.6l-0.7,17.4l3.7,0.1l0.7-17.4c0.1-3.4,1.8-6.5,4.5-8.4v25.8h3.7V80.1L70.1,76
	v31.6h3.7V75l8.5-2.2v34.8h3.6V68L73.8,71.2z M70.1,72.2l-16,4.1V64.8c0-6.4-4.1-12.1-10.2-14l-15.8-5V35.3c0-4,2.2-7.7,5.8-9.6
	L70.1,6.2V72.2z"/>
<path class="st0" d="M85.9,68l-12.1,3.2V0L32.1,22.4c-4.7,2.5-7.7,7.5-7.7,12.9v9.5L10,40.3v67.4h3.7V45.3l10.6,3.3v58.9h3.7V49.8
	l14.7,4.6c4.6,1.4,7.7,5.6,7.6,10.4v12.7c-4.9,2.3-8,7.2-8.2,12.6l-0.7,17.4l3.7,0.1l0.7-17.4c0.1-3.4,1.8-6.5,4.5-8.4v25.8h3.7
	V80.1L70.1,76v31.6h3.7V75l8.5-2.2v34.8h3.7V68L85.9,68z M70.1,72.1l-16,4.2V64.8c0-6.4-4.1-12.1-10.2-14l-15.8-5V35.3
	c0-4,2.2-7.7,5.8-9.6L70.1,6.2V72.1z"/>
</svg>
