<svg id="Layer_1" data-name="Layer 1" xmlns="http://www.w3.org/2000/svg" viewBox="0 0 247.41 152.41"><defs><style>.cls-1{fill:#00032e;}</style></defs><path class="cls-1" d="M153.8,73.48V2.32L112.05,24.74a14.6,14.6,0,0,0-7.7,12.89v9.46L90,42.58v67.35h3.73V47.64L104.35,51v58.94h3.72V52.16l14.7,4.62a10.85,10.85,0,0,1,7.64,10.4V79.86a14.47,14.47,0,0,0-8.22,12.58l-.68,17.41,3.72.14.67-17.41a10.84,10.84,0,0,1,4.5-8.42v25.76h3.72V82.44l15.95-4.15v31.63h3.73V77.32l8.5-2.22v34.82h3.57V70.33Zm-3.73,1-15.95,4.14V67.17a14.57,14.57,0,0,0-10.23-13.94l-15.83-5V37.62A10.88,10.88,0,0,1,113.82,28L150.07,8.54Z" transform="translate(-4.2 -2.32)"/><path class="cls-1" d="M165.87,70.33,153.8,73.48V2.32L112.05,24.74a14.6,14.6,0,0,0-7.7,12.89v9.46L90,42.58v67.35h3.73V47.64L104.35,51v58.94h3.72V52.16l14.7,4.62a10.85,10.85,0,0,1,7.64,10.4V79.86a14.47,14.47,0,0,0-8.22,12.58l-.68,17.41,3.72.14.67-17.41a10.84,10.84,0,0,1,4.5-8.42v25.76h3.72V82.44l15.95-4.15v31.63h3.73V77.32l8.5-2.22v34.82H166V70.29Zm-15.8,4.12-15.95,4.14V67.17a14.57,14.57,0,0,0-10.23-13.94l-15.83-5V37.62A10.88,10.88,0,0,1,113.82,28L150.07,8.54Z" transform="translate(-4.2 -2.32)"/><path class="cls-1" d="M15.2,120H11.48L4.2,136.37H8.07l1.46-3.5h7.58l1.42,3.5h4Zm-4.47,10,2.59-6.25L15.9,130Z" transform="translate(-4.2 -2.32)"/><path class="cls-1" d="M40.54,136.37v-9.8l-4.82,8.06H34l-4.78-7.84v9.58H25.69V120h3.13l6.11,10.15,6-10.15H44l.05,16.33Z" transform="translate(-4.2 -2.32)"/><path class="cls-1" d="M64.29,136.37v-9.8l-4.82,8.06h-1.7L53,126.79v9.58H49.44V120h3.13l6.11,10.15,6-10.15h3.1l0,16.33Z" transform="translate(-4.2 -2.32)"/><path class="cls-1" d="M81,136.65a9.41,9.41,0,0,1-4.52-1.08,8.07,8.07,0,0,1-3.16-3,8.82,8.82,0,0,1,0-8.71,8.12,8.12,0,0,1,3.16-3,10.14,10.14,0,0,1,8.38-.33,7.79,7.79,0,0,1,2.88,2.15l-2.43,2.23a5.2,5.2,0,0,0-4.1-1.91,5.52,5.52,0,0,0-2.71.66,4.75,4.75,0,0,0-1.85,1.87,5.36,5.36,0,0,0-.67,2.7,5.42,5.42,0,0,0,.67,2.71,4.7,4.7,0,0,0,1.85,1.85,5.52,5.52,0,0,0,2.71.66,5.14,5.14,0,0,0,4.1-1.94l2.43,2.24a7.55,7.55,0,0,1-2.9,2.17A9.46,9.46,0,0,1,81,136.65Z" transform="translate(-4.2 -2.32)"/><path class="cls-1" d="M105.21,136.65a13.68,13.68,0,0,1-3.74-.52,8.61,8.61,0,0,1-2.9-1.38l1.28-2.83a8.71,8.71,0,0,0,2.5,1.23,9.41,9.41,0,0,0,2.9.47,4.55,4.55,0,0,0,2.36-.48,1.46,1.46,0,0,0,.78-1.27,1.21,1.21,0,0,0-.46-1,3.57,3.57,0,0,0-1.17-.61c-.47-.16-1.11-.33-1.91-.52a29.43,29.43,0,0,1-3.07-.88,5.06,5.06,0,0,1-2-1.43,3.86,3.86,0,0,1-.85-2.62,4.44,4.44,0,0,1,.77-2.56,5,5,0,0,1,2.31-1.84,9.5,9.5,0,0,1,3.8-.68,12.43,12.43,0,0,1,3,.38,8.82,8.82,0,0,1,2.61,1.07l-1.16,2.87a9.14,9.14,0,0,0-4.53-1.29,4.26,4.26,0,0,0-2.35.52,1.56,1.56,0,0,0-.75,1.35,1.33,1.33,0,0,0,.86,1.26,14.21,14.21,0,0,0,2.68.79,25.64,25.64,0,0,1,3,.9,5,5,0,0,1,2.05,1.39,3.74,3.74,0,0,1,.85,2.59,4.49,4.49,0,0,1-.78,2.56A5.32,5.32,0,0,1,109,136,9.68,9.68,0,0,1,105.21,136.65Z" transform="translate(-4.2 -2.32)"/><path class="cls-1" d="M131.88,123.9a8.25,8.25,0,0,0-3.19-3,10.08,10.08,0,0,0-9.16,0,8,8,0,0,0-3.18,3,8.13,8.13,0,0,0-1.16,4.31,8.25,8.25,0,0,0,1.16,4.32,8.12,8.12,0,0,0,3.18,3,10.08,10.08,0,0,0,9.16,0,8.35,8.35,0,0,0,3.19-3,8.16,8.16,0,0,0,1.17-4.32A8.05,8.05,0,0,0,131.88,123.9Zm-3.33,7a4.67,4.67,0,0,1-1.81,1.85,5.26,5.26,0,0,1-2.62.66,5.19,5.19,0,0,1-2.61-.66,4.72,4.72,0,0,1-1.83-1.85,5.42,5.42,0,0,1-.67-2.71,5.36,5.36,0,0,1,.67-2.7,4.77,4.77,0,0,1,1.83-1.87,5.2,5.2,0,0,1,2.61-.67,5.26,5.26,0,0,1,2.62.67,4.72,4.72,0,0,1,1.81,1.87,5.46,5.46,0,0,1,.67,2.7A5.53,5.53,0,0,1,128.55,130.92Z" transform="translate(-4.2 -2.32)"/><path class="cls-1" d="M137.37,120h3.78v13.25h8.18v3.08h-12Z" transform="translate(-4.2 -2.32)"/><path class="cls-1" d="M160.2,136.65a7.38,7.38,0,0,1-5.44-1.93,7.47,7.47,0,0,1-1.95-5.53V120h3.78v9q0,4.4,3.63,4.39a3.42,3.42,0,0,0,2.7-1.06,5,5,0,0,0,.93-3.33v-9h3.73v9.15a7.47,7.47,0,0,1-2,5.53A7.32,7.32,0,0,1,160.2,136.65Z" transform="translate(-4.2 -2.32)"/><path class="cls-1" d="M176.18,123.13H171V120h14.22v3.09H180v13.24h-3.78Z" transform="translate(-4.2 -2.32)"/><path class="cls-1" d="M188.7,120h3.78v16.33H188.7Z" transform="translate(-4.2 -2.32)"/><path class="cls-1" d="M213.5,123.9a8.25,8.25,0,0,0-3.19-3,10.08,10.08,0,0,0-9.16,0,8,8,0,0,0-3.18,3,8.13,8.13,0,0,0-1.16,4.31,8.25,8.25,0,0,0,1.16,4.32,8.12,8.12,0,0,0,3.18,3,10.08,10.08,0,0,0,9.16,0,8.35,8.35,0,0,0,3.19-3,8.16,8.16,0,0,0,1.17-4.32A8.05,8.05,0,0,0,213.5,123.9Zm-3.33,7a4.67,4.67,0,0,1-1.81,1.85,5.51,5.51,0,0,1-5.23,0,4.72,4.72,0,0,1-1.83-1.85,5.42,5.42,0,0,1-.67-2.71,5.36,5.36,0,0,1,.67-2.7,4.77,4.77,0,0,1,1.83-1.87,5.44,5.44,0,0,1,5.23,0,4.72,4.72,0,0,1,1.81,1.87,5.46,5.46,0,0,1,.67,2.7A5.53,5.53,0,0,1,210.17,130.92Z" transform="translate(-4.2 -2.32)"/><path class="cls-1" d="M234,120v16.33h-3.1l-8.15-9.91v9.91H219V120h3.14l8.11,9.91V120Z" transform="translate(-4.2 -2.32)"/><path class="cls-1" d="M244.68,136.65a13.8,13.8,0,0,1-3.75-.52,8.55,8.55,0,0,1-2.89-1.38l1.28-2.83a8.71,8.71,0,0,0,2.5,1.23,9.4,9.4,0,0,0,2.89.47,4.57,4.57,0,0,0,2.37-.48,1.46,1.46,0,0,0,.78-1.27,1.24,1.24,0,0,0-.46-1,3.68,3.68,0,0,0-1.17-.61c-.47-.16-1.11-.33-1.92-.52a29.89,29.89,0,0,1-3.06-.88,5,5,0,0,1-2-1.43,3.86,3.86,0,0,1-.85-2.62,4.5,4.5,0,0,1,.76-2.56,5.12,5.12,0,0,1,2.32-1.84,9.5,9.5,0,0,1,3.8-.68,12.35,12.35,0,0,1,3,.38,9,9,0,0,1,2.62,1.07l-1.17,2.87a9.08,9.08,0,0,0-4.53-1.29,4.24,4.24,0,0,0-2.34.52,1.56,1.56,0,0,0-.75,1.35,1.33,1.33,0,0,0,.86,1.26,14,14,0,0,0,2.68.79,26.22,26.22,0,0,1,3.05.9,5,5,0,0,1,2,1.39,3.74,3.74,0,0,1,.85,2.59,4.49,4.49,0,0,1-.78,2.56,5.32,5.32,0,0,1-2.35,1.83A9.68,9.68,0,0,1,244.68,136.65Z" transform="translate(-4.2 -2.32)"/><path class="cls-1" d="M59.84,149.7a2.43,2.43,0,0,0-1.66-.52H56v5.48h.78V153h1.37a2.53,2.53,0,0,0,1.66-.5,1.72,1.72,0,0,0,.62-1.4A1.68,1.68,0,0,0,59.84,149.7ZM59.27,152a1.68,1.68,0,0,1-1.13.32H56.81v-2.45h1.33a1.73,1.73,0,0,1,1.13.32,1.08,1.08,0,0,1,.41.91A1.06,1.06,0,0,1,59.27,152Z" transform="translate(-4.2 -2.32)"/><path class="cls-1" d="M67.94,152.82a2,2,0,0,0,.89-.64,1.92,1.92,0,0,0,.31-1.09,1.7,1.7,0,0,0-.61-1.39,2.49,2.49,0,0,0-1.67-.52H64.71v5.48h.78V153h1.37a2.33,2.33,0,0,0,.33,0l1.19,1.69h.86Zm-1.12-.49H65.49v-2.47h1.33a1.76,1.76,0,0,1,1.14.32,1.08,1.08,0,0,1,.4.91,1.11,1.11,0,0,1-.4.92A1.76,1.76,0,0,1,66.82,152.33Z" transform="translate(-4.2 -2.32)"/><path class="cls-1" d="M78.43,150.49a2.66,2.66,0,0,0-1-1,3.16,3.16,0,0,0-3,0,2.62,2.62,0,0,0-1,1,2.77,2.77,0,0,0-.38,1.42,2.85,2.85,0,0,0,.38,1.45,2.6,2.6,0,0,0,1,1,3.16,3.16,0,0,0,3,0,2.63,2.63,0,0,0,1-1,2.85,2.85,0,0,0,.38-1.45A2.77,2.77,0,0,0,78.43,150.49Zm-.68,2.5a2,2,0,0,1-.75.76,2.11,2.11,0,0,1-1.08.27,2.17,2.17,0,0,1-1.11-.27A2,2,0,0,1,74,153a2.35,2.35,0,0,1,0-2.15,2.13,2.13,0,0,1,.77-.75,2.28,2.28,0,0,1,1.11-.27,2.22,2.22,0,0,1,1.08.27,2.07,2.07,0,0,1,.75.75,2.28,2.28,0,0,1,0,2.15Z" transform="translate(-4.2 -2.32)"/><path class="cls-1" d="M86.85,149.7a2.46,2.46,0,0,0-1.67-.52H83v5.48h.78V153h1.36a2.56,2.56,0,0,0,1.67-.5,1.72,1.72,0,0,0,.62-1.4A1.68,1.68,0,0,0,86.85,149.7ZM86.28,152a1.68,1.68,0,0,1-1.13.32H83.82v-2.45h1.33a1.73,1.73,0,0,1,1.13.32,1.08,1.08,0,0,1,.4.91A1.06,1.06,0,0,1,86.28,152Z" transform="translate(-4.2 -2.32)"/><path class="cls-1" d="M95.7,154v.68h-4v-5.48H95.6v.68H92.5v1.68h2.75v.67H92.5V154Z" transform="translate(-4.2 -2.32)"/><path class="cls-1" d="M103.22,152.82a1.85,1.85,0,0,0,.89-.64,1.92,1.92,0,0,0,.31-1.09,1.7,1.7,0,0,0-.61-1.39,2.46,2.46,0,0,0-1.67-.52H100v5.48h.78V153h1.36a2.26,2.26,0,0,0,.33,0l1.19,1.69h.86Zm-1.11-.49h-1.33v-2.47h1.33a1.75,1.75,0,0,1,1.13.32,1.08,1.08,0,0,1,.4.91,1.11,1.11,0,0,1-.4.92A1.75,1.75,0,0,1,102.11,152.33Z" transform="translate(-4.2 -2.32)"/><path class="cls-1" d="M109.81,149.86h-1.88v-.68h4.53v.68h-1.88v4.8h-.77Z" transform="translate(-4.2 -2.32)"/><path class="cls-1" d="M118.44,152.76v1.9h-.77v-1.92l-2.18-3.56h.83l1.77,2.88,1.75-2.88h.78Z" transform="translate(-4.2 -2.32)"/><path class="cls-1" d="M131.17,154.72a4.06,4.06,0,0,1-1.2-.18,2.42,2.42,0,0,1-.9-.51l.3-.6a2.27,2.27,0,0,0,.78.46,3.26,3.26,0,0,0,1,.17,1.88,1.88,0,0,0,1-.23.72.72,0,0,0,.35-.62.56.56,0,0,0-.2-.45,1.29,1.29,0,0,0-.45-.27c-.18-.06-.44-.13-.77-.21a7.82,7.82,0,0,1-1-.3,1.81,1.81,0,0,1-.65-.45,1.26,1.26,0,0,1-.27-.85,1.39,1.39,0,0,1,.24-.79,1.54,1.54,0,0,1,.7-.56,2.82,2.82,0,0,1,1.16-.22,3.41,3.41,0,0,1,.95.14,2.44,2.44,0,0,1,.82.34l-.27.64a2.88,2.88,0,0,0-.73-.34,2.92,2.92,0,0,0-.77-.11,1.64,1.64,0,0,0-1,.25.72.72,0,0,0-.33.61.63.63,0,0,0,.18.47,1.8,1.8,0,0,0,.47.27,7.68,7.68,0,0,0,.77.21,7.89,7.89,0,0,1,1,.3,1.73,1.73,0,0,1,.65.45,1.15,1.15,0,0,1,.28.82,1.35,1.35,0,0,1-.25.8,1.63,1.63,0,0,1-.71.56A2.89,2.89,0,0,1,131.17,154.72Z" transform="translate(-4.2 -2.32)"/><path class="cls-1" d="M142.46,150.49a2.63,2.63,0,0,0-1-1,3.21,3.21,0,0,0-3,0,2.75,2.75,0,0,0-1.05,1,2.86,2.86,0,0,0-.36,1.42,2.94,2.94,0,0,0,.36,1.45,2.73,2.73,0,0,0,1.05,1,3.21,3.21,0,0,0,3,0,2.61,2.61,0,0,0,1-1,2.76,2.76,0,0,0,.38-1.45A2.68,2.68,0,0,0,142.46,150.49Zm-.68,2.5a2,2,0,0,1-.75.76,2.1,2.1,0,0,1-1.09.27,2.13,2.13,0,0,1-1.09-.27,1.88,1.88,0,0,1-.77-.76,2.28,2.28,0,0,1,0-2.15,2,2,0,0,1,.77-.75,2.23,2.23,0,0,1,1.09-.27,2.2,2.2,0,0,1,1.09.27,2.15,2.15,0,0,1,.75,2.9Z" transform="translate(-4.2 -2.32)"/><path class="cls-1" d="M147.07,149.18h.78V154h3v.68h-3.75Z" transform="translate(-4.2 -2.32)"/><path class="cls-1" d="M157,154.72a2.33,2.33,0,0,1-1.72-.61,2.59,2.59,0,0,1-.59-1.82v-3.11h.78v3.08q0,1.77,1.53,1.77a1.49,1.49,0,0,0,1.15-.44,1.89,1.89,0,0,0,.4-1.33v-3.08h.77v3.11a2.51,2.51,0,0,1-.62,1.82A2.3,2.3,0,0,1,157,154.72Z" transform="translate(-4.2 -2.32)"/><path class="cls-1" d="M165.07,149.86h-1.88v-.68h4.53v.68h-1.88v4.8h-.77Z" transform="translate(-4.2 -2.32)"/><path class="cls-1" d="M171.6,149.18h.78v5.48h-.78Z" transform="translate(-4.2 -2.32)"/><path class="cls-1" d="M182.05,150.49a2.59,2.59,0,0,0-1-1,3,3,0,0,0-1.47-.37,3.09,3.09,0,0,0-1.5.37,2.62,2.62,0,0,0-1,1,2.76,2.76,0,0,0-.37,1.42,2.85,2.85,0,0,0,.37,1.45,2.6,2.6,0,0,0,1,1,3,3,0,0,0,1.5.37,2.92,2.92,0,0,0,1.47-.37,2.57,2.57,0,0,0,1-1,2.86,2.86,0,0,0,.39-1.45A2.78,2.78,0,0,0,182.05,150.49Zm-.68,2.5a1.89,1.89,0,0,1-.75.76,2.11,2.11,0,0,1-1.08.27,2.2,2.2,0,0,1-1.11-.27,2,2,0,0,1-.76-.76,2.35,2.35,0,0,1,0-2.15,2.1,2.1,0,0,1,.76-.75,2.31,2.31,0,0,1,1.11-.27,2.22,2.22,0,0,1,1.08.27,2,2,0,0,1,.75.75,2.2,2.2,0,0,1,0,2.15Z" transform="translate(-4.2 -2.32)"/><path class="cls-1" d="M191.37,149.18v5.48h-.63l-3.3-4.08v4.08h-.78v-5.48h.65l3.28,4.08v-4.08Z" transform="translate(-4.2 -2.32)"/><path class="cls-1" d="M197.64,154.72a3.94,3.94,0,0,1-1.19-.18,2.42,2.42,0,0,1-.9-.51l.3-.6a2.18,2.18,0,0,0,.78.46,3.2,3.2,0,0,0,1,.17,1.83,1.83,0,0,0,1-.23.72.72,0,0,0,.35-.62.56.56,0,0,0-.2-.45,1.13,1.13,0,0,0-.45-.27c-.18-.06-.43-.13-.77-.21a7.6,7.6,0,0,1-1-.3,1.73,1.73,0,0,1-.65-.45,1.26,1.26,0,0,1-.27-.85,1.38,1.38,0,0,1,.23-.79,1.66,1.66,0,0,1,.7-.56,2.84,2.84,0,0,1,1.17-.22,3.47,3.47,0,0,1,.95.14,2.3,2.3,0,0,1,.81.34l-.26.64a3.12,3.12,0,0,0-.74-.34,2.85,2.85,0,0,0-.76-.11,1.62,1.62,0,0,0-1,.25.7.7,0,0,0-.33.61.59.59,0,0,0,.18.47,1.74,1.74,0,0,0,.46.27c.19.06.45.14.77.21a7,7,0,0,1,1,.3,1.65,1.65,0,0,1,.65.45,1.16,1.16,0,0,1,.29.82,1.43,1.43,0,0,1-.25.8,1.66,1.66,0,0,1-.72.56A2.86,2.86,0,0,1,197.64,154.72Z" transform="translate(-4.2 -2.32)"/></svg>