<svg id="Layer_1" data-name="Layer 1" xmlns="http://www.w3.org/2000/svg" viewBox="0 0 76.05 107.67"><defs><style>.cls-1{fill:#d4af37;}</style></defs><path class="cls-1" d="M67.46,71.16V0L25.71,22.42A14.61,14.61,0,0,0,18,35.29v9.47L3.64,40.29v67.36H7.37V45.29L18,48.64v58.94h3.73V49.84l14.7,4.62a10.85,10.85,0,0,1,7.64,10.4V77.54a14.48,14.48,0,0,0-8.22,12.58l-.68,17.41,3.72.14.67-17.38a10.86,10.86,0,0,1,4.5-8.42v25.76h3.72V80.12L63.73,76V107.6h3.73V75L76,72.78V107.6h3.57V68Zm-3.73,1L47.78,76.29V64.85a14.58,14.58,0,0,0-10.24-14l-15.82-5V35.29a10.88,10.88,0,0,1,5.76-9.61L63.73,6.22Z" transform="translate(-3.64)"/><path class="cls-1" d="M79.53,68,67.46,71.16V0L25.71,22.42A14.61,14.61,0,0,0,18,35.29v9.47L3.64,40.29v67.36H7.37V45.29L18,48.64v58.94h3.73V49.84l14.7,4.62a10.85,10.85,0,0,1,7.64,10.4V77.54a14.48,14.48,0,0,0-8.22,12.58l-.68,17.41,3.72.14.67-17.38a10.86,10.86,0,0,1,4.5-8.42v25.76h3.72V80.12L63.73,76V107.6h3.73V75L76,72.78V107.6h3.73V68Zm-15.8,4.12L47.78,76.29V64.85a14.58,14.58,0,0,0-10.24-14l-15.82-5V35.29a10.88,10.88,0,0,1,5.76-9.61L63.73,6.22Z" transform="translate(-3.64)"/></svg>